<?xml version="1.0" encoding="UTF-8" standalone="no"?>
<svg xmlns="http://www.w3.org/2000/svg" contentScriptType="application/ecmascript" contentStyleType="text/css"
     height="391px" preserveAspectRatio="none" style="width:385px;height:391px;" version="1.1" viewBox="0 0 385 391"
     width="385px" zoomAndPan="magnify">
    <defs>
        <filter height="300%" id="f1sm3zbj5lodm0" width="300%" x="-1" y="-1">
            <feGaussianBlur result="blurOut" stdDeviation="2.0"/>
            <feColorMatrix in="blurOut" result="blurOut2" type="matrix"
                           values="0 0 0 0 0 0 0 0 0 0 0 0 0 0 0 0 0 0 .4 0"/>
            <feOffset dx="4.0" dy="4.0" in="blurOut2" result="blurOut3"/>
            <feBlend in="SourceGraphic" in2="blurOut3" mode="normal"/>
        </filter>
    </defs>
    <g>
        <text fill="#000000" font-family="sans-serif" font-size="18" lengthAdjust="spacing" text-decoration="underline"
              textLength="151" x="110.5" y="18.6855">UI's Class Diagram
        </text>
        <text fill="#000000" font-family="sans-serif" font-size="18" lengthAdjust="spacing" textLength="0" x="188.5"
              y="41.3262"/><!--MD5=[b2f9ede89d6087cc71eecd749012a0d0]
cluster tdt4145.ui-->
        <polygon fill="#FFFFFF" filter="url(#f1sm3zbj5lodm0)"
                 points="16,51.2813,90,51.2813,97,74.8906,368,74.8906,368,384.2813,16,384.2813,16,51.2813"
                 style="stroke:#000000;stroke-width:1.5;"/>
        <line style="stroke:#000000;stroke-width:1.5;" x1="16" x2="97" y1="74.8906" y2="74.8906"/>
        <text fill="#000000" font-family="sans-serif" font-size="14" font-weight="bold" lengthAdjust="spacing"
              textLength="68" x="20" y="67.8145">tdt4145.ui
        </text><!--MD5=[234d0414525da94521d655ae479e5f46]
class tdt4145.ui.Main-->
        <rect codeLine="5" fill="#FEFECE" filter="url(#f1sm3zbj5lodm0)" height="75.6719" id="tdt4145.ui.Main"
              style="stroke:#A80036;stroke-width:1.5;" width="58" x="32" y="114.7813"/>
        <ellipse cx="47" cy="130.7813" fill="#ADD1B2" rx="11" ry="11" style="stroke:#A80036;stroke-width:1.0;"/>
        <path d="M49,127.2813 Q49.2031,126.7813 49.4375,126.5313 Q49.6719,126.2813 49.9375,126.2813 Q50.4063,126.2813 50.7031,126.5625 Q51,126.8438 51,127.5 L51,129.0625 Q51,129.7188 50.7188,130 Q50.4375,130.2813 50,130.2813 Q49.6094,130.2813 49.3594,130.1094 Q49.1094,129.9375 49,129.4844 Q48.9531,129.1719 48.7813,129 Q48.4688,128.6719 47.9063,128.4844 Q47.3438,128.2813 46.7813,128.2813 Q46.0781,128.2813 45.4844,128.5625 Q44.9063,128.8438 44.4531,129.4688 Q44,130.0938 44,130.9531 L44,131.875 Q44,132.9063 44.8438,133.5938 Q45.6875,134.2813 47.1875,134.2813 Q48.0781,134.2813 48.7031,134.0781 Q49.0625,133.9688 49.4688,133.6094 Q49.7344,133.4063 49.875,133.3438 Q50.0156,133.2813 50.1875,133.2813 Q50.5156,133.2813 50.75,133.5469 Q51,133.7969 51,134.1563 Q51,134.5 50.6563,134.9063 Q50.1563,135.5 49.3594,135.8281 Q48.3125,136.2813 47.0313,136.2813 Q45.5313,136.2813 44.3281,135.6875 Q43.3594,135.2188 42.6719,134.2031 Q42,133.1875 42,131.9844 L42,130.8906 Q42,129.6406 42.5938,128.5469 Q43.2031,127.4531 44.25,126.875 Q45.3125,126.2813 46.5,126.2813 Q47.2188,126.2813 47.8438,126.5313 Q48.4688,126.7813 49,127.2813 Z "
              fill="#000000"/>
        <text fill="#000000" font-family="sans-serif" font-size="12" lengthAdjust="spacing" textLength="26" x="61"
              y="135.6914">Main
        </text>
        <line style="stroke:#A80036;stroke-width:1.5;" x1="33" x2="89" y1="146.7813" y2="146.7813"/>
        <line style="stroke:#A80036;stroke-width:1.5;" x1="33" x2="89" y1="154.7813" y2="154.7813"/>
        <ellipse cx="43" cy="165.7813" fill="#84BE84" rx="3" ry="3" style="stroke:#038048;stroke-width:1.0;"/>
        <text fill="#000000" font-family="sans-serif" font-size="11" lengthAdjust="spacing" text-decoration="underline"
              textLength="25" x="52" y="170.2002">exit()
        </text>
        <ellipse cx="43" cy="179.6172" fill="#84BE84" rx="3" ry="3" style="stroke:#038048;stroke-width:1.0;"/>
        <text fill="#000000" font-family="sans-serif" font-size="11" lengthAdjust="spacing" text-decoration="underline"
              textLength="30" x="52" y="184.0361">main()
        </text><!--MD5=[81bd9e0cc0e8474a4e7b35d9c4e4a495]
class tdt4145.ui.MainMenu-->
        <rect codeLine="13" fill="#FEFECE" filter="url(#f1sm3zbj5lodm0)" height="131.0156" id="tdt4145.ui.MainMenu"
              style="stroke:#A80036;stroke-width:1.5;" width="104" x="125" y="87.2813"/>
        <ellipse cx="147.2" cy="103.2813" fill="#ADD1B2" rx="11" ry="11" style="stroke:#A80036;stroke-width:1.0;"/>
        <path d="M149.2,99.7813 Q149.4031,99.2813 149.6375,99.0313 Q149.8719,98.7813 150.1375,98.7813 Q150.6063,98.7813 150.9031,99.0625 Q151.2,99.3438 151.2,100 L151.2,101.5625 Q151.2,102.2188 150.9188,102.5 Q150.6375,102.7813 150.2,102.7813 Q149.8094,102.7813 149.5594,102.6094 Q149.3094,102.4375 149.2,101.9844 Q149.1531,101.6719 148.9813,101.5 Q148.6688,101.1719 148.1063,100.9844 Q147.5438,100.7813 146.9813,100.7813 Q146.2781,100.7813 145.6844,101.0625 Q145.1063,101.3438 144.6531,101.9688 Q144.2,102.5938 144.2,103.4531 L144.2,104.375 Q144.2,105.4063 145.0438,106.0938 Q145.8875,106.7813 147.3875,106.7813 Q148.2781,106.7813 148.9031,106.5781 Q149.2625,106.4688 149.6688,106.1094 Q149.9344,105.9063 150.075,105.8438 Q150.2156,105.7813 150.3875,105.7813 Q150.7156,105.7813 150.95,106.0469 Q151.2,106.2969 151.2,106.6563 Q151.2,107 150.8563,107.4063 Q150.3563,108 149.5594,108.3281 Q148.5125,108.7813 147.2313,108.7813 Q145.7313,108.7813 144.5281,108.1875 Q143.5594,107.7188 142.8719,106.7031 Q142.2,105.6875 142.2,104.4844 L142.2,103.3906 Q142.2,102.1406 142.7938,101.0469 Q143.4031,99.9531 144.45,99.375 Q145.5125,98.7813 146.7,98.7813 Q147.4188,98.7813 148.0438,99.0313 Q148.6688,99.2813 149.2,99.7813 Z "
              fill="#000000"/>
        <text fill="#000000" font-family="sans-serif" font-size="12" lengthAdjust="spacing" textLength="56" x="162.8"
              y="108.1914">MainMenu
        </text>
        <line style="stroke:#A80036;stroke-width:1.5;" x1="126" x2="228" y1="119.2813" y2="119.2813"/>
        <line style="stroke:#A80036;stroke-width:1.5;" x1="126" x2="228" y1="127.2813" y2="127.2813"/>
        <ellipse cx="136" cy="138.2813" fill="#84BE84" rx="3" ry="3" style="stroke:#038048;stroke-width:1.0;"/>
        <text fill="#000000" font-family="sans-serif" font-size="11" lengthAdjust="spacing" textLength="60" x="145"
              y="142.7002">createPost()
        </text>
        <ellipse cx="136" cy="152.1172" fill="#84BE84" rx="3" ry="3" style="stroke:#038048;stroke-width:1.0;"/>
        <text fill="#000000" font-family="sans-serif" font-size="11" lengthAdjust="spacing" textLength="34" x="145"
              y="156.5361">menu()
        </text>
        <ellipse cx="136" cy="165.9531" fill="#84BE84" rx="3" ry="3" style="stroke:#038048;stroke-width:1.0;"/>
        <text fill="#000000" font-family="sans-serif" font-size="11" lengthAdjust="spacing" textLength="56" x="145"
              y="170.3721">printPosts()
        </text>
        <ellipse cx="136" cy="179.7891" fill="#84BE84" rx="3" ry="3" style="stroke:#038048;stroke-width:1.0;"/>
        <text fill="#000000" font-family="sans-serif" font-size="11" lengthAdjust="spacing" textLength="69" x="145"
              y="184.208">searchPosts()
        </text>
        <ellipse cx="136" cy="193.625" fill="#84BE84" rx="3" ry="3" style="stroke:#038048;stroke-width:1.0;"/>
        <text fill="#000000" font-family="sans-serif" font-size="11" lengthAdjust="spacing" textLength="76" x="145"
              y="198.0439">viewStatistics()
        </text>
        <ellipse cx="136" cy="207.4609" fill="#84BE84" rx="3" ry="3" style="stroke:#038048;stroke-width:1.0;"/>
        <text fill="#000000" font-family="sans-serif" font-size="11" lengthAdjust="spacing" textLength="78" x="145"
              y="211.8799">welcomeMenu()
        </text><!--MD5=[33caf6c8a4b75feca5806dd52b5e4f86]
class tdt4145.ui.PostMenu-->
        <rect codeLine="25" fill="#FEFECE" filter="url(#f1sm3zbj5lodm0)" height="103.3438" id="tdt4145.ui.PostMenu"
              style="stroke:#A80036;stroke-width:1.5;" width="87" x="264.5" y="101.2813"/>
        <ellipse cx="279.5" cy="117.2813" fill="#ADD1B2" rx="11" ry="11" style="stroke:#A80036;stroke-width:1.0;"/>
        <path d="M281.5,113.7813 Q281.7031,113.2813 281.9375,113.0313 Q282.1719,112.7813 282.4375,112.7813 Q282.9063,112.7813 283.2031,113.0625 Q283.5,113.3438 283.5,114 L283.5,115.5625 Q283.5,116.2188 283.2188,116.5 Q282.9375,116.7813 282.5,116.7813 Q282.1094,116.7813 281.8594,116.6094 Q281.6094,116.4375 281.5,115.9844 Q281.4531,115.6719 281.2813,115.5 Q280.9688,115.1719 280.4063,114.9844 Q279.8438,114.7813 279.2813,114.7813 Q278.5781,114.7813 277.9844,115.0625 Q277.4063,115.3438 276.9531,115.9688 Q276.5,116.5938 276.5,117.4531 L276.5,118.375 Q276.5,119.4063 277.3438,120.0938 Q278.1875,120.7813 279.6875,120.7813 Q280.5781,120.7813 281.2031,120.5781 Q281.5625,120.4688 281.9688,120.1094 Q282.2344,119.9063 282.375,119.8438 Q282.5156,119.7813 282.6875,119.7813 Q283.0156,119.7813 283.25,120.0469 Q283.5,120.2969 283.5,120.6563 Q283.5,121 283.1563,121.4063 Q282.6563,122 281.8594,122.3281 Q280.8125,122.7813 279.5313,122.7813 Q278.0313,122.7813 276.8281,122.1875 Q275.8594,121.7188 275.1719,120.7031 Q274.5,119.6875 274.5,118.4844 L274.5,117.3906 Q274.5,116.1406 275.0938,115.0469 Q275.7031,113.9531 276.75,113.375 Q277.8125,112.7813 279,112.7813 Q279.7188,112.7813 280.3438,113.0313 Q280.9688,113.2813 281.5,113.7813 Z "
              fill="#000000"/>
        <text fill="#000000" font-family="sans-serif" font-size="12" lengthAdjust="spacing" textLength="55" x="293.5"
              y="122.1914">PostMenu
        </text>
        <line style="stroke:#A80036;stroke-width:1.5;" x1="265.5" x2="350.5" y1="133.2813" y2="133.2813"/>
        <line style="stroke:#A80036;stroke-width:1.5;" x1="265.5" x2="350.5" y1="141.2813" y2="141.2813"/>
        <ellipse cx="275.5" cy="152.2813" fill="#84BE84" rx="3" ry="3" style="stroke:#038048;stroke-width:1.0;"/>
        <text fill="#000000" font-family="sans-serif" font-size="11" lengthAdjust="spacing" textLength="51" x="284.5"
              y="156.7002">comment()
        </text>
        <ellipse cx="275.5" cy="166.1172" fill="#84BE84" rx="3" ry="3" style="stroke:#038048;stroke-width:1.0;"/>
        <text fill="#000000" font-family="sans-serif" font-size="11" lengthAdjust="spacing" textLength="41" x="284.5"
              y="170.5361">getInfo()
        </text>
        <ellipse cx="275.5" cy="179.9531" fill="#84BE84" rx="3" ry="3" style="stroke:#038048;stroke-width:1.0;"/>
        <text fill="#000000" font-family="sans-serif" font-size="11" lengthAdjust="spacing" textLength="44" x="284.5"
              y="184.3721">likePost()
        </text>
        <ellipse cx="275.5" cy="193.7891" fill="#84BE84" rx="3" ry="3" style="stroke:#038048;stroke-width:1.0;"/>
        <text fill="#000000" font-family="sans-serif" font-size="11" lengthAdjust="spacing" textLength="34" x="284.5"
              y="198.208">menu()
        </text><!--MD5=[eef6f26e20137a800ece9b8a093548e4]
class tdt4145.ui.ThreadController-->
        <rect codeLine="35" fill="#FEFECE" filter="url(#f1sm3zbj5lodm0)" height="75.6719"
              id="tdt4145.ui.ThreadController" style="stroke:#A80036;stroke-width:1.5;" width="125" x="32.5"
              y="285.2813"/>
        <ellipse cx="47.5" cy="301.2813" fill="#ADD1B2" rx="11" ry="11" style="stroke:#A80036;stroke-width:1.0;"/>
        <path d="M49.5,297.7813 Q49.7031,297.2813 49.9375,297.0313 Q50.1719,296.7813 50.4375,296.7813 Q50.9063,296.7813 51.2031,297.0625 Q51.5,297.3438 51.5,298 L51.5,299.5625 Q51.5,300.2188 51.2188,300.5 Q50.9375,300.7813 50.5,300.7813 Q50.1094,300.7813 49.8594,300.6094 Q49.6094,300.4375 49.5,299.9844 Q49.4531,299.6719 49.2813,299.5 Q48.9688,299.1719 48.4063,298.9844 Q47.8438,298.7813 47.2813,298.7813 Q46.5781,298.7813 45.9844,299.0625 Q45.4063,299.3438 44.9531,299.9688 Q44.5,300.5938 44.5,301.4531 L44.5,302.375 Q44.5,303.4063 45.3438,304.0938 Q46.1875,304.7813 47.6875,304.7813 Q48.5781,304.7813 49.2031,304.5781 Q49.5625,304.4688 49.9688,304.1094 Q50.2344,303.9063 50.375,303.8438 Q50.5156,303.7813 50.6875,303.7813 Q51.0156,303.7813 51.25,304.0469 Q51.5,304.2969 51.5,304.6563 Q51.5,305 51.1563,305.4063 Q50.6563,306 49.8594,306.3281 Q48.8125,306.7813 47.5313,306.7813 Q46.0313,306.7813 44.8281,306.1875 Q43.8594,305.7188 43.1719,304.7031 Q42.5,303.6875 42.5,302.4844 L42.5,301.3906 Q42.5,300.1406 43.0938,299.0469 Q43.7031,297.9531 44.75,297.375 Q45.8125,296.7813 47,296.7813 Q47.7188,296.7813 48.3438,297.0313 Q48.9688,297.2813 49.5,297.7813 Z "
              fill="#000000"/>
        <text fill="#000000" font-family="sans-serif" font-size="12" lengthAdjust="spacing" textLength="93" x="61.5"
              y="306.1914">ThreadController
        </text>
        <line style="stroke:#A80036;stroke-width:1.5;" x1="33.5" x2="156.5" y1="317.2813" y2="317.2813"/>
        <line style="stroke:#A80036;stroke-width:1.5;" x1="33.5" x2="156.5" y1="325.2813" y2="325.2813"/>
        <ellipse cx="43.5" cy="336.2813" fill="#84BE84" rx="3" ry="3" style="stroke:#038048;stroke-width:1.0;"/>
        <text fill="#000000" font-family="sans-serif" font-size="11" lengthAdjust="spacing" text-decoration="underline"
              textLength="51" x="52.5" y="340.7002">comment()
        </text>
        <ellipse cx="43.5" cy="350.1172" fill="#84BE84" rx="3" ry="3" style="stroke:#038048;stroke-width:1.0;"/>
        <text fill="#000000" font-family="sans-serif" font-size="11" lengthAdjust="spacing" text-decoration="underline"
              textLength="29" x="52.5" y="354.5361">post()
        </text><!--MD5=[2d592b686869c9906f19eda058c20363]
class tdt4145.ui.UserController-->
        <rect codeLine="43" fill="#FEFECE" filter="url(#f1sm3zbj5lodm0)" height="89.5078" id="tdt4145.ui.UserController"
              style="stroke:#A80036;stroke-width:1.5;" width="118" x="193" y="278.2813"/>
        <ellipse cx="210.25" cy="294.2813" fill="#ADD1B2" rx="11" ry="11" style="stroke:#A80036;stroke-width:1.0;"/>
        <path d="M212.25,290.7813 Q212.4531,290.2813 212.6875,290.0313 Q212.9219,289.7813 213.1875,289.7813 Q213.6563,289.7813 213.9531,290.0625 Q214.25,290.3438 214.25,291 L214.25,292.5625 Q214.25,293.2188 213.9688,293.5 Q213.6875,293.7813 213.25,293.7813 Q212.8594,293.7813 212.6094,293.6094 Q212.3594,293.4375 212.25,292.9844 Q212.2031,292.6719 212.0313,292.5 Q211.7188,292.1719 211.1563,291.9844 Q210.5938,291.7813 210.0313,291.7813 Q209.3281,291.7813 208.7344,292.0625 Q208.1563,292.3438 207.7031,292.9688 Q207.25,293.5938 207.25,294.4531 L207.25,295.375 Q207.25,296.4063 208.0938,297.0938 Q208.9375,297.7813 210.4375,297.7813 Q211.3281,297.7813 211.9531,297.5781 Q212.3125,297.4688 212.7188,297.1094 Q212.9844,296.9063 213.125,296.8438 Q213.2656,296.7813 213.4375,296.7813 Q213.7656,296.7813 214,297.0469 Q214.25,297.2969 214.25,297.6563 Q214.25,298 213.9063,298.4063 Q213.4063,299 212.6094,299.3281 Q211.5625,299.7813 210.2813,299.7813 Q208.7813,299.7813 207.5781,299.1875 Q206.6094,298.7188 205.9219,297.7031 Q205.25,296.6875 205.25,295.4844 L205.25,294.3906 Q205.25,293.1406 205.8438,292.0469 Q206.4531,290.9531 207.5,290.375 Q208.5625,289.7813 209.75,289.7813 Q210.4688,289.7813 211.0938,290.0313 Q211.7188,290.2813 212.25,290.7813 Z "
              fill="#000000"/>
        <text fill="#000000" font-family="sans-serif" font-size="12" lengthAdjust="spacing" textLength="81" x="224.75"
              y="299.1914">UserController
        </text>
        <line style="stroke:#A80036;stroke-width:1.5;" x1="194" x2="310" y1="310.2813" y2="310.2813"/>
        <rect fill="none" height="6" style="stroke:#C82930;stroke-width:1.0;" width="6" x="201" y="318.2813"/>
        <text fill="#000000" font-family="sans-serif" font-size="11" lengthAdjust="spacing" text-decoration="underline"
              textLength="92" x="213" y="325.7002">emailRegex : String
        </text>
        <line style="stroke:#A80036;stroke-width:1.5;" x1="194" x2="310" y1="332.1172" y2="332.1172"/>
        <ellipse cx="204" cy="343.1172" fill="#84BE84" rx="3" ry="3" style="stroke:#038048;stroke-width:1.0;"/>
        <text fill="#000000" font-family="sans-serif" font-size="11" lengthAdjust="spacing" text-decoration="underline"
              textLength="39" x="213" y="347.5361">create()
        </text>
        <ellipse cx="204" cy="356.9531" fill="#84BE84" rx="3" ry="3" style="stroke:#038048;stroke-width:1.0;"/>
        <text fill="#000000" font-family="sans-serif" font-size="11" lengthAdjust="spacing" text-decoration="underline"
              textLength="30" x="213" y="361.3721">login()
        </text><!--MD5=[3f88cdc8591cf64e61832b77e49c3c23]
link tdt4145.ui.Main to tdt4145.ui.MainMenu--><!--MD5=[2428b58858a268ae7e94ecf77e89304d]
link tdt4145.ui.MainMenu to tdt4145.ui.PostMenu--><!--MD5=[cba62b79975d64bc7645c0afa37e9d11]
link tdt4145.ui.Main to tdt4145.ui.ThreadController--><!--MD5=[46d71171fffe5a296316597090deeefb]
link tdt4145.ui.ThreadController to tdt4145.ui.UserController--><!--MD5=[068c8809848effdd034f7713f2696173]
@startuml

title __UI's Class Diagram__\n

  namespace tdt4145.ui {
    class tdt4145.ui.Main {
        {static} + exit()
        {static} + main()
    }
  }
  

  namespace tdt4145.ui {
    class tdt4145.ui.MainMenu {
        + createPost()
        + menu()
        + printPosts()
        + searchPosts()
        + viewStatistics()
        + welcomeMenu()
    }
  }
  

  namespace tdt4145.ui {
    class tdt4145.ui.PostMenu {
        + comment()
        + getInfo()
        + likePost()
        + menu()
    }
  }
  

  namespace tdt4145.ui {
    class tdt4145.ui.ThreadController {
        {static} + comment()
        {static} + post()
    }
  }
  

  namespace tdt4145.ui {
    class tdt4145.ui.UserController {
        {static} - emailRegex : String
        {static} + create()
        {static} + login()
    }
  }

@enduml

PlantUML version 1.2021.00(Sun Jan 10 11:25:05 CET 2021)
(GPL source distribution)
Java Runtime: OpenJDK Runtime Environment
JVM: OpenJDK 64-Bit Server VM
Default Encoding: Cp1252
Language: en
Country: US
-->
    </g>
</svg>